<svg id="Capa_1" enable-background="new 0 0 512 512" height="512" viewBox="0 0 512 512" width="512" xmlns="http://www.w3.org/2000/svg"><g><g><g><g><g><path d="m176.813 465.003 10.948-56.97 68.239-25.422 68.239 25.422 10.948 56.97-79.187 17.814z" fill="#365e7d"/><path d="m44.36 401.274c141.093 10.061 282.186 10.061 423.28 0 18.262-1.302 32.999-15.338 35.224-33.511 12.181-99.479 12.181-198.957 0-298.436-2.225-18.173-16.962-32.209-35.224-33.511-141.094-10.061-282.187-10.061-423.28 0-18.262 1.303-32.999 15.339-35.224 33.512-12.181 99.478-12.181 198.957 0 298.436 2.225 18.172 16.962 32.208 35.224 33.51z" fill="#407093"/><path d="m53.454 401.903c-3.029-.206-6.057-.412-9.086-.628-18.265-1.308-33.007-15.34-35.232-33.512-12.177-99.485-12.177-198.959 0-298.444 2.225-18.172 16.967-32.203 35.232-33.512 3.029-.216 6.058-.423 9.086-.629-6.634 6.325-11.126 14.886-12.311 24.529-12.97 105.892-12.97 211.774 0 317.667 1.185 9.643 5.677 18.204 12.311 24.529z" fill="#365e7d"/><path d="m36.329 331.932c.851 8.946 8.091 15.935 17.059 16.523 67.34 4.42 135.412 6.662 202.613 6.662s135.273-2.242 202.613-6.662c8.968-.589 16.208-7.577 17.059-16.523 8.187-86.083 7.028-173.003-3.483-258.848-.427-3.483-3.264-6.192-6.746-6.441-69.491-4.954-139.957-7.467-209.444-7.467s-139.953 2.513-209.442 7.467c-3.483.248-6.32 2.957-6.746 6.441-10.512 85.845-11.67 172.765-3.483 258.848z" fill="#80b4fb"/><path d="m256 362.844c-67.272 0-135.611-2.247-203.119-6.679-12.833-.842-23.029-10.726-24.244-23.502-8.237-86.606-7.057-174.257 3.506-260.518.875-7.142 6.706-12.697 13.866-13.208 69.674-4.968 140.325-7.487 209.991-7.487s140.317 2.519 209.991 7.487c7.161.511 12.992 6.066 13.866 13.208 10.562 86.261 11.742 173.912 3.506 260.518-1.215 12.775-11.411 22.66-24.244 23.502-67.508 4.432-135.847 6.679-203.119 6.679zm-208.556-288.517c-10.394 85.058-11.545 171.476-3.423 256.873.493 5.188 4.645 9.202 9.873 9.545 67.173 4.409 135.171 6.645 202.107 6.645s134.934-2.236 202.107-6.645c5.227-.343 9.379-4.357 9.873-9.545 8.121-85.397 6.97-171.816-3.423-256.874-69.204-4.926-139.367-7.423-208.558-7.423s-139.353 2.497-208.556 7.424z" fill="#365e7d"/><path d="m256 390.853c-4.267 0-7.726-3.459-7.726-7.726v-.515c0-4.267 3.459-7.726 7.726-7.726s7.726 3.459 7.726 7.726v.515c0 4.267-3.459 7.726-7.726 7.726z" fill="#365e7d"/><path d="m376.953 500.631h-241.906c-9.838 0-17.814-7.976-17.814-17.814 0-9.838 7.976-17.814 17.814-17.814h241.906c9.838 0 17.814 7.976 17.814 17.814 0 9.838-7.976 17.814-17.814 17.814z" fill="#407093"/><path d="m183.082 500.629h-48.037c-9.838 0-17.812-7.974-17.812-17.812 0-4.914 1.998-9.375 5.213-12.599 3.225-3.214 7.685-5.213 12.599-5.213h48.037c-4.924 0-9.374 1.998-12.599 5.213-3.225 3.224-5.213 7.685-5.213 12.599 0 9.838 7.974 17.812 17.812 17.812z" fill="#365e7d"/></g></g></g><path d="m361.242 114.002c-70.161-3.371-140.322-3.371-210.484 0-18.595.893-33.888 15.122-35.997 33.618-3.436 30.136-3.436 60.272 0 90.408 2.109 18.496 17.402 32.725 35.997 33.618 70.161 3.371 140.322 3.371 210.484 0 18.595-.893 33.888-15.122 35.997-33.618 3.436-30.136 3.436-60.272 0-90.408-2.109-18.496-17.403-32.724-35.997-33.618z" fill="#ffd064"/><path d="m156.69 271.912c-1.978-.082-3.956-.175-5.934-.268-18.595-.886-33.893-15.113-35.995-33.615-3.441-30.133-3.441-60.266 0-90.408 2.102-18.492 17.4-32.719 35.995-33.615 1.978-.093 3.956-.186 5.934-.268-10.91 6.274-18.677 17.451-20.181 30.648-3.678 32.296-3.678 64.593 0 96.889 1.504 13.196 9.271 24.363 20.181 30.637z" fill="#ffc250"/><g fill="#db5c6e"><path d="m198.026 187.573c2.836-3.96 4.512-8.804 4.512-14.036 0-13.327-10.842-24.169-24.169-24.169h-20.757c-4.267 0-7.726 3.459-7.726 7.726v71.46c0 2.055.819 4.026 2.275 5.475 1.448 1.442 3.408 2.251 5.451 2.251h.034c.002 0 19.087-.085 24.348-.085 14.866 0 26.961-12.095 26.961-26.961 0-8.865-4.303-16.744-10.929-21.661zm-19.658-22.752c4.806 0 8.716 3.91 8.716 8.716s-3.91 8.717-8.716 8.717c-1.523 0-4.39.008-7.517.019h-5.514v-17.452zm3.626 55.922c-3.047 0-10.718.028-16.656.052v-23.048c1.802-.008 3.73-.015 5.569-.021h11.087c6.346 0 11.508 5.163 11.508 11.509s-5.163 11.508-11.508 11.508z"/><path d="m358.604 150.8c-3.576-2.327-8.363-1.316-10.691 2.26l-16.173 24.845-16.347-25.035c-2.333-3.573-7.121-4.577-10.694-2.245-3.573 2.333-4.578 7.121-2.245 10.694l21.563 33.024-.084 34.192c-.011 4.267 3.44 7.735 7.707 7.746h.02c4.258 0 7.715-3.447 7.726-7.707l.084-34.219 21.393-32.864c2.329-3.576 1.317-8.363-2.259-10.691z"/><path d="m280.348 149.368c-4.267 0-7.726 3.459-7.726 7.726v49.121c0 3.769-1.048 8.623-9.216 12.738-2.471 1.244-5.259 1.875-8.288 1.875-.01 0-.021 0-.031 0-3.391-.005-6.342-.84-9.022-2.552-5.429-3.469-7.644-6.948-7.644-12.009v-49.173c0-4.267-3.459-7.726-7.726-7.726s-7.726 3.459-7.726 7.726v49.173c0 10.491 4.834 18.678 14.777 25.031 5.161 3.297 10.989 4.973 17.321 4.982h.053c5.465 0 10.591-1.187 15.238-3.527 14.645-7.375 17.718-18.503 17.718-26.539v-49.121c-.001-4.266-3.461-7.725-7.728-7.725z"/></g><path d="m448.8 320.5c-6.222 6.222-16.349 6.222-22.582 0l-19.872-19.883-8.901 8.901c-5.553 5.552-15.041 3.008-17.081-4.585l-14.763-55.136c-1.02-3.791.206-7.428 2.637-9.859 2.431-2.432 6.068-3.668 9.859-2.648l55.146 14.773c7.593 2.04 10.127 11.528 4.574 17.08l-8.891 8.891 19.872 19.882c6.235 6.225 6.235 16.362.002 22.584z" fill="#ededed"/><g fill="#f7f063"><path d="m104.529 98.595 1.507-1.507c5.314-5.314 5.606-13.835.668-19.499l-15.188-17.425c-5.44-6.241-15.028-6.57-20.883-.715l-3.744 3.744c-5.854 5.854-5.526 15.443.715 20.883l17.426 15.187c5.665 4.938 14.186 4.646 19.499-.668z"/><path d="m165.581 62.711 2.058-.551c7.259-1.945 11.772-9.178 10.328-16.553l-4.441-22.684c-1.591-8.125-9.73-13.204-17.727-11.061l-5.114 1.37c-7.997 2.143-12.507 10.611-9.822 18.443l7.497 21.866c2.437 7.107 9.962 11.115 17.221 9.17z"/><path d="m69.6 160.198.551-2.058c1.945-7.259-2.063-14.784-9.171-17.221l-21.866-7.497c-7.832-2.685-16.3 1.825-18.443 9.822l-1.37 5.114c-2.143 7.997 2.936 16.137 11.061 17.727l22.684 4.441c7.376 1.444 14.609-3.069 16.554-10.328z"/></g></g><path d="m448.8 320.5c-6.222 6.222-16.349 6.222-22.582 0l-19.872-19.883-8.901 8.901c-5.553 5.552-15.041 3.008-17.081-4.585l-14.763-55.136c-1.02-3.791.206-7.428 2.637-9.859z" fill="#dbdbdb"/></g></svg>