<svg height="512" viewBox="0 0 64 64" width="512" xmlns="http://www.w3.org/2000/svg"><g id="Send_package" data-name="Send package"><path d="m37.5 44.126a1.989 1.989 0 0 0 -1 .008l-15.921 4.266a2.987 2.987 0 0 0 -2.094 2.061l-10.675-6.161a3 3 0 0 0 -3 5.2l17.726 10.232a2 2 0 0 0 1 .268h16.992a2 2 0 0 0 .894-.211l3.578-1.789v-12z" fill="#ffbcab"/><path d="m5 11h14l2-8h-12z" fill="#a97c50"/><path d="m41 11-4-8h-12l2 8z" fill="#a97c50"/><path d="m53 43h-8v3 12 3h8v-2-14z" fill="#006df0"/><path d="m53 45h8v14h-8z" fill="#2488ff"/><path d="m5 11h36v28h-36z" fill="#bc9977"/><path d="m23 21 4 2v-12h-8v12z" fill="#ff9811"/><path d="m27 11-2-8h-4l-2 8z" fill="#ee8700"/><path d="m39 11v18a6 6 0 0 1 -6 6h-28v4h36v-28z" fill="#b38b63"/><path d="m53 45h2v14h-2z" fill="#005ece"/><path d="m22.132 53.2a3 3 0 0 1 -3.674-2.121c-.027-.1-.032-.2-.049-.3a2.985 2.985 0 0 0 3.723 3.421l11.693-3.133-.361-.9z" fill="#ff9478"/></g></svg>