<svg id="Capa_1" enable-background="new 0 0 512 512" height="512" viewBox="0 0 512 512" width="512" xmlns="http://www.w3.org/2000/svg"><g><path d="m181 377h150v120h-150z" fill="#d5e8fe"/><path d="m256 377h75v120h-75z" fill="#b5dbff"/><path d="m512 0v330l-30 31h-452l-30-31v-330z" fill="#47568c"/><path d="m512 0v330l-30 31h-226v-361z" fill="#3a4673"/><path d="m30 30h452v270h-452z" fill="#edf5ff"/><path d="m256 30h226v270h-226z" fill="#d5e8fe"/><path d="m241 422h30v30h-30z" fill="#b3e4ff"/><g fill="#5dacff"><path d="m271 150h150v30h-150z"/><path d="m271 210h150v30h-150z"/><path d="m271 90h150v30h-150z"/></g><g fill="#47568c"><path d="m115.009 210v30h50.991 50.991v-30h-50.991z"/><path d="m166 90h-50.991v30h50.991 50.991v-30z"/></g><path d="m166 90h50.991v30h-50.991z" fill="#3a4673"/><path d="m166 210h50.991v30h-50.991z" fill="#3a4673"/><path d="m211 60c0 40.472-19.977 62.556-45 84.983-3.224 2.889-6.511 5.782-9.873 8.723-30.527 26.719-65.127 56.982-65.127 116.294h30c0-40.472 19.977-62.556 45-84.983 3.224-2.889 6.511-5.782 9.873-8.723 30.527-26.719 65.127-56.982 65.127-116.294z" fill="#ff6e83"/><path d="m241 60h-30c0 40.472-19.977 62.556-45 84.983v40.034c3.224-2.889 6.511-5.782 9.873-8.723 30.527-26.719 65.127-56.982 65.127-116.294z" fill="#ff3b7f"/><path d="m175.873 153.706c-3.362-2.941-6.649-5.834-9.873-8.723-25.023-22.427-45-44.511-45-84.983h-30c0 59.312 34.6 89.575 65.127 116.294 3.362 2.941 6.649 5.834 9.873 8.723 25.023 22.427 45 44.511 45 84.983h30c0-59.312-34.6-89.575-65.127-116.294z" fill="#b3e4ff"/><path d="m211 270h30c0-59.312-34.6-89.575-65.127-116.294-3.362-2.941-6.649-5.834-9.873-8.723v40.034c25.023 22.427 45 44.511 45 84.983z" fill="#5dacff"/><path d="m256 422h15v30h-15z" fill="#5dacff"/><path d="m121 482h270v30h-270z" fill="#edf5ff"/><path d="m256 482h135v30h-135z" fill="#d5e8fe"/><path d="m0 330h512v62h-512z" fill="#edf5ff"/><path d="m256 330h256v62h-256z" fill="#d5e8fe"/></g></svg>