<?xml version="1.0"?>
<svg xmlns="http://www.w3.org/2000/svg" id="Layer_1" data-name="Layer 1" viewBox="0 0 512 512" width="512" height="512"><title>Journal</title><rect x="430.56" y="224.86" width="41.86" height="68.72" style="fill:#fedb41"/><rect x="430.56" y="156.14" width="41.86" height="68.72" style="fill:#00efd1"/><rect x="430.56" y="87.42" width="41.86" height="68.72" style="fill:#fedb41"/><path d="M430.56,293.58v143.9a42.942,42.942,0,0,1-42.94,42.95H129.88V31.57H387.62a42.942,42.942,0,0,1,42.94,42.95V293.58Z" style="fill:#00acea"/><path d="M65.46,415.76V74.52a42.951,42.951,0,0,1,42.95-42.95h21.47V480.43H108.41a42.951,42.951,0,0,1-42.95-42.95Z" style="fill:#00efd1"/><path d="M93.56,264H39.58a8,8,0,1,1,0-16H93.56a8,8,0,0,1,0,16Z" style="fill:#fedb41"/><path d="M93.56,343.58H39.58a8,8,0,1,1,0-16H93.56a8,8,0,0,1,0,16Z" style="fill:#fedb41"/><path d="M93.56,184.42H39.58a8,8,0,0,1,0-16H93.56a8,8,0,1,1,0,16Z" style="fill:#fedb41"/><path d="M93.56,104.24H39.58a8,8,0,0,1,0-16H93.56a8,8,0,0,1,0,16Z" style="fill:#fedb41"/><path d="M93.56,423.76H39.58a8,8,0,1,1,0-16H93.56a8,8,0,0,1,0,16Z" style="fill:#fedb41"/><path d="M326.015,288.578A72.143,72.143,0,0,0,333.47,256a72.953,72.953,0,0,0-5.422-28.129c-8.6-20.7-26.036-34.69-44.345-47.364,16.254-11.252,31.85-23.56,41.155-40.686a71,71,0,0,0,8.612-34.791,8,8,0,1,0-16,0A56.111,56.111,0,0,1,312.826,128H226.145a56.105,56.105,0,0,1-4.645-22.97,8,8,0,1,0-16,0,71,71,0,0,0,8.611,34.789c9.3,17.12,24.9,29.431,41.151,40.688-18.308,12.679-35.742,26.669-44.341,47.365A72.962,72.962,0,0,0,205.5,256a72.14,72.14,0,0,0,7.452,32.573c9.134,18.3,25.356,31.174,42.307,42.91-15.056,10.43-29.565,21.779-39.006,37.008A70.867,70.867,0,0,0,205.5,406.97a8,8,0,0,0,16,0A55.7,55.7,0,0,1,227.551,381h83.868a55.69,55.69,0,0,1,6.051,25.97,8,8,0,0,0,16,0A70.86,70.86,0,0,0,322.719,368.5c-9.448-15.24-23.956-26.587-39.013-37.012C300.658,319.751,316.881,306.875,326.015,288.578ZM225.32,277a56.578,56.578,0,0,1-3.82-21,57.913,57.913,0,0,1,2.413-17h91.144a57.923,57.923,0,0,1,2.413,17,56.549,56.549,0,0,1-3.821,21ZM236.5,144h65.979c-8.755,10.034-20.5,18.393-32.994,26.854C257,162.391,245.249,154.031,236.5,144Zm32.985,46.163c14.863,10.071,28.725,20.031,37.69,32.837H231.8C240.764,210.2,254.622,200.237,269.481,190.163ZM299.709,365H239.261c8.391-8.73,18.992-16.252,30.22-23.864C280.712,348.746,291.315,356.266,299.709,365Zm-30.228-43.174c-13.285-9-25.731-17.907-34.63-28.826H304.12C295.22,303.921,282.771,312.824,269.481,321.826Z" style="fill:#fedb41"/></svg>
