<svg id="Icon_Set" enable-background="new 0 0 256 256" height="512" viewBox="0 0 256 256" width="512" xmlns="http://www.w3.org/2000/svg"><path d="m157.306 57.181c0-16.871-14.256-30.412-31.379-29.234-14.581 1.003-26.339 12.906-27.182 27.497-.364 6.303 1.268 12.202 4.319 17.13 2.949 4.762 4.517 10.249 4.517 15.85v16.779h39.386v-14.543c0-5.984 1.711-11.882 5.124-16.798 3.287-4.733 5.215-10.481 5.215-16.681z" fill="#f9d335"/><path d="m129.053 131.447h-3.597c-9.872 0-17.875-8.003-17.875-17.875v-8.37h39.347v8.37c0 9.872-8.002 17.875-17.875 17.875z" fill="#87828e"/><path d="m157.301 57.179c0 6.2-1.92 11.95-5.21 16.68-3.41 4.92-5.12 10.82-5.12 16.8v14.54h-15v-14.54c0-5.98 1.71-11.88 5.12-16.8 3.29-4.73 5.21-10.48 5.21-16.68 0-13.59-9.25-25.02-21.8-28.33 1.75-.47 3.57-.77 5.43-.9 17.12-1.18 31.37 12.36 31.37 29.23z" fill="#f2c300"/><path d="m118.061 72.569c2.95 4.77 4.52 10.25 4.52 15.85v16.78h-15v-16.78c0-5.6-1.57-11.08-4.52-15.85-3.05-4.92-4.68-10.82-4.32-17.13.85-14.59 12.6-26.49 27.19-27.49 3.33-.23 6.54.1 9.57.9-11.98 3.18-21.02 13.86-21.76 26.59-.36 6.31 1.27 12.21 4.32 17.13z" fill="#f9e27d"/><path d="m146.932 105.199v8.37c0 9.88-8.01 17.88-17.88 17.88h-3.6c-1.99 0-3.91-.33-5.7-.93 7.08-2.38 12.18-9.06 12.18-16.95v-8.37z" fill="#796e84"/><path d="m134.751 130.519c-1.79.6-3.71.93-5.7.93h-3.6c-9.87 0-17.87-8-17.87-17.88v-8.37h15v8.37c0 7.89 5.1 14.57 12.17 16.95z" fill="#a4a4a5"/><path d="m107.581 97.728h39.386v16.779h-39.386z" fill="#87828e"/><path d="m131.971 97.729h15v16.78h-15z" fill="#796e84"/><path d="m107.581 97.729h15v16.78h-15z" fill="#a4a4a5"/><path id="XMLID_28_" d="m143.099 176.537 9.514-13.301c.363-.507.557-1.112.557-1.735 0-2.275-.001-7.815-.001-7.759 0-26.944 21.551-49.277 48.495-49.476 37.554-.277 61.201 40.22 43.049 72.59-4.987 8.893-15.758 29.99-15.758 40.42 0 6.885 2.177 13.832 6.557 19.672l7.308 9.744c1.476 1.968.072 4.777-2.389 4.777h-52.136c-1.649 0-2.986-1.338-2.986-2.987 0-12.581.002-24.111.002-24.034.001-1.649-1.336-2.987-2.986-2.987h-10.258c-9.781 0-18.426-23.706-18.897-38.924h-6.986c-3.086 0-4.88-3.489-3.085-6z" fill="#5fcdff"/><path id="XMLID_15_" d="m112.899 176.537-9.514-13.301c-.363-.507-.557-1.112-.557-1.735 0-2.275.001-7.815.001-7.759 0-26.944-21.551-49.277-48.495-49.476-37.554-.277-61.201 40.22-43.049 72.59 4.987 8.893 15.758 29.99 15.758 40.42 0 6.885-2.177 13.832-6.557 19.672l-7.308 9.744c-1.476 1.968-.072 4.777 2.389 4.777h52.136c1.649 0 2.986-1.338 2.986-2.987 0-12.581-.002-24.111-.002-24.034-.001-1.649 1.336-2.987 2.986-2.987h10.258c9.781 0 18.425-23.706 18.897-38.924h6.986c3.086 0 4.88-3.489 3.085-6z" fill="#5fcdff"/><path d="m203.299 251.469h-15c-1.65 0-2.99-1.34-2.99-2.99 0-12.54 0-24.03 0-24.03 0-1.65-1.33-2.99-2.98-2.99h-10.26c-9.78 0-18.43-23.7-18.9-38.92h-6.98c-3.09 0-4.89-3.49-3.09-6l9.51-13.3c.37-.51.56-1.11.56-1.74 0-2.26 0-7.76 0-7.76 0-26.94 21.55-49.27 48.49-49.47 2.73-.02 5.39.18 7.97.57-23.56 3.63-41.46 24.35-41.46 48.9v7.76c0 .63-.19 1.23-.56 1.74l-9.51 13.3c-1.8 2.51 0 6 3.09 6h6.98c.47 15.22 9.12 38.92 18.9 38.92h10.26c1.65 0 2.98 1.34 2.98 2.99v24.03c0 1.65 1.34 2.99 2.99 2.99z" fill="#73d7f9"/><path d="m109.809 182.539h-6.98c-.47 15.22-9.12 38.92-18.9 38.92h-10.26c-1.65 0-2.98 1.34-2.98 2.99v24.03c0 1.65-1.34 2.99-2.99 2.99h-15c1.65 0 2.99-1.34 2.99-2.99 0-12.54 0-24.03 0-24.03 0-1.65 1.33-2.99 2.98-2.99h10.26c9.78 0 18.43-23.7 18.9-38.92h6.98c3.09 0 4.89-3.49 3.09-6l-9.51-13.3c-.37-.51-.56-1.11-.56-1.74 0-2.26 0-7.76 0-7.76 0-24.55-17.9-45.27-41.46-48.9 2.58-.39 5.24-.59 7.97-.57 26.94.2 48.49 22.53 48.49 49.47v7.76c0 .63.19 1.23.56 1.74l9.51 13.3c1.8 2.51 0 6-3.09 6z" fill="#30b6ff"/><path d="m26.289 176.859c4.98 8.89 15.75 29.99 15.75 40.42 0 6.88-2.17 13.83-6.55 19.67l-7.31 9.74c-1.48 1.97-.07 4.78 2.39 4.78h-15c-2.46 0-3.87-2.81-2.39-4.78l7.31-9.74c4.38-5.84 6.55-12.79 6.55-19.67 0-10.43-10.77-31.53-15.75-40.42-18.16-32.37 5.49-72.87 43.05-72.59 2.39.02 4.74.21 7.03.57-32.81 5-51.92 42.01-35.08 72.02z" fill="#73d7f9"/><path d="m244.709 176.859c-4.98 8.89-15.75 29.99-15.75 40.42 0 6.88 2.17 13.83 6.55 19.67l7.31 9.74c1.48 1.97.07 4.78-2.39 4.78h-15c2.46 0 3.87-2.81 2.39-4.78l-7.31-9.74c-4.38-5.84-6.55-12.79-6.55-19.67 0-10.43 10.77-31.53 15.75-40.42 16.84-30.01-2.27-67.02-35.08-72.02 2.29-.36 4.64-.55 7.03-.57 37.56-.28 61.21 40.22 43.05 72.59z" fill="#30b6ff"/><g fill="#5f266d"><path d="m201.635 100.266c-28.93.214-52.466 24.203-52.466 53.478l.002 7.431-9.324 13.036c-1.707 2.387-1.935 5.489-.593 8.098 2.458 4.784 7.044 4.229 10.195 4.229 1.62 15.148 9.819 38.925 22.618 38.925h9.255c-.017.572-.013 22.447-.013 23.021 0 3.853 3.134 6.986 6.985 6.986h52.136c5.754 0 9.041-6.575 5.589-11.177-7.153-9.539-13.065-15.507-13.065-27.017 0-7.789 7.658-24.931 15.248-38.464 19.69-35.115-5.984-78.84-46.567-78.546zm39.59 74.633c-2.718 4.845-16.271 29.655-16.271 42.377 0 14.018 6.894 21.454 13.448 30.193h-49.093l.002-23.02c.002-3.856-3.117-6.988-6.986-6.988h-10.258c-5.454 0-14.396-18.799-14.898-35.049-.066-2.159-1.837-3.876-3.998-3.876h-6.584c10.017-14.005 10.584-14.106 10.584-17.038 0-.154 0-7.603-.006-7.757h.004c0-24.895 19.974-45.295 44.524-45.477 34.365-.267 56.246 36.827 39.532 66.635z"/><path d="m116.152 174.21-9.325-13.036.001-7.432c0-29.355-23.69-53.478-52.872-53.478-40.387 0-65.768 43.583-46.16 78.548 23.458 41.835 16.031 47.012 2.181 65.48-3.451 4.603-.164 11.177 5.589 11.177h52.136c3.852 0 6.986-3.134 6.986-6.986 0-.601.006-22.424-.013-23.021h9.255c12.798 0 20.999-23.776 22.619-38.925h3.264c6.335 0 10.025-7.172 6.339-12.327zm-13.324 4.327c-2.161 0-3.931 1.716-3.998 3.876-.503 16.25-9.445 35.049-14.899 35.049h-10.259c-3.869 0-6.987 3.131-6.986 6.987l.002 23.021h-49.093c6.212-8.282 13.449-15.985 13.449-30.193 0-12.718-13.553-37.531-16.27-42.376-7.845-13.989-7.618-30.653.607-44.578 23.338-39.509 83.447-22.46 83.447 23.42h.004c-.007.174-.005 7.584-.005 7.759 0 2.937.582 3.054 10.584 17.036h-6.583z"/><path d="m150.968 114.507c0-25.202-1.042-30.502 4.408-38.363 3.643-5.238 5.648-11.348 5.88-17.734h33.493c3.309 0 6 2.691 6 6v20c0 2.209 1.791 4 4 4s4-1.791 4-4v-20c0-7.72-6.28-14-14-14h-34.149c-1.396-6.683-4.829-12.865-9.88-17.581-18.974-17.713-50.091-7.766-55.335 17.581h-34.136c-7.72 0-14 6.28-14 14v20c0 2.209 1.791 4 4 4s4-1.791 4-4v-20c0-3.309 2.691-6 6-6h33.484c.552 15.064 8.849 16.838 8.849 30.01 0 28.038-.05 26.265.088 26.917.909 11.325 10.347 20.113 21.782 20.113h3.6c12.909-.001 21.916-11.043 21.916-20.943zm-21.916 12.942h-3.6c-5.906 0-10.98-3.691-12.973-8.94h29.556c-1.994 5.248-7.072 8.94-12.983 8.94zm13.916-16.942h-31.387v-8.777h31.387zm-11.694-16.779v-17.233l10.438-10.438c1.563-1.562 1.563-4.095 0-5.656-1.563-1.563-4.096-1.563-5.656 0l-4.778 4.778v-6.757c0-2.209-1.79-4-4-4-2.209 0-4 1.791-4 4v6.755l-4.776-4.776c-1.562-1.562-4.094-1.562-5.657 0s-1.563 4.095 0 5.656l10.429 10.43v17.241h-11.693v-5.309c0-16.438-9.659-18.527-8.847-32.747 1.246-21.385 26.965-31.518 42.526-16.996 9.492 8.861 10.475 22.939 3.544 32.905-5.121 7.386-5.833 14.058-5.833 22.146h-11.697z"/><path d="m127.22 19.28c2.209 0 4-1.791 4-4v-10.75c0-2.209-1.791-4-4-4s-4 1.791-4 4v10.75c0 2.209 1.791 4 4 4z"/><path d="m147.762 25.072c2.154 0 2.28-.624 10.43-8.773 1.563-1.562 1.563-4.095 0-5.656-1.561-1.563-4.096-1.563-5.656 0l-7.602 7.602c-2.528 2.526-.703 6.827 2.828 6.827z"/><path d="m109.762 24.155c3.531 0 5.356-4.302 2.829-6.828l-7.602-7.602c-1.563-1.563-4.095-1.563-5.657 0-1.562 1.562-1.562 4.095 0 5.656 8.14 8.142 8.271 8.774 10.43 8.774z"/></g></svg>