<?xml version="1.0" standalone="no"?>
<svg
  width="600"
  height="600"
  viewBox="0 0 400 400"
  xmlns="http://www.w3.org/2000/svg"
>
  <g transform="translate(190,240)">
    <path d="M143.5,-181.3C173.9,-145.5,178,-88.8,182.5,-36.2C187,16.4,191.8,65,175.2,108.1C158.5,151.2,120.5,188.8,73.1,210.1C25.7,231.5,-31.1,236.5,-66.7,211.3C-102.2,186.2,-116.5,130.8,-133.8,84.9C-151.2,39,-171.6,2.6,-180.8,-46.9C-189.9,-96.4,-187.9,-158.9,-155.8,-194.4C-123.8,-229.9,-61.9,-238.5,-2.7,-235.3C56.6,-232.1,113.1,-217.2,143.5,-181.3Z" fill="#fff" />
  </g>
</svg>
